<svg xmlns="http://www.w3.org/2000/svg" viewBox="0 0 226.7717 53.478622" height="53.48" width="226.77">
 <g transform="translate(-28.347-15.78)" fill-rule="evenodd">
  <path d="m28.347 53.601v-21.274h14.501c9.265-.11 14.312 2.833 14.14 7.175-.09 2.325-1.848 3.926-5.531 4.845l7.06 9.254h-12.907l-5.742-8.588-.269.002v8.586h-11.257m193.49-21.274v21.274h13.177c13.564-.347 19.614-4.264 20.1-10.821-.769-7.05-8.158-10.11-20.04-10.453h-13.238m12.196 6.04v9.132c4.61.094 8.601-.653 8.948-4.413-.58-4.195-4.734-4.49-8.948-4.719m-44.18 15.234c1.919-7.187 1.651-14.265 0-21.274h15.572c9.265-.11 14.312 2.833 14.14 7.175-.09 2.325-1.848 3.926-5.531 4.845l7.06 9.254h-12.907l-5.742-8.588-.269.002v8.586h-12.328m12.32-15.13v4.959c3.363.246 5.657-.297 5.694-2.449-.092-2.306-1.898-2.775-5.694-2.51m-83.73-6.147h11.822l11.281 10.444v-10.444h11.552v21.274h-11.281l-11.732-10.289v10.289h-11.552l-.09-21.274m-35.62 0l9.308 10.185-9.825 11.09h13.297l4.111-6.292 4.456 6.292h13.489l-9.879-11.08 8.965-10.197h-13.01l-3.729 5.59-3.851-5.59h-13.333m-23.607 0v21.274h22.15l2.358-5.887h-12.38v-2.274h7.58v-5.306h-7.664v-2.443h11.791l-2.442-5.365h-21.392m-19.628 6.147v4.959c3.363.246 5.657-.297 5.694-2.449-.092-2.306-1.898-2.775-5.694-2.51" fill="#1b1918"/>
  <path d="m152.68 22.975c.811-2.21 1.821-4.177 3.453-5.977 17.19-5.072 36.555 6.03 36.34 27.1-1.422 19.594-18.372 28.327-33.32 24.13 15.465 3.442 30.517-5.723 31.534-23.93-.673-20.655-21.893-30.796-38.01-21.323m2.939 21.2c.35-9.861 12.777-13.829 18.586-5.339 3.289 5.164.976 12.407-4.267 14.381-6.129 2.622-13.785-1.45-13.98-8.882-.663 3.943 2.429 12.808 13.452 11.285 6.04-.787 14.84-10.517 6.142-21.72-6.605-7.129-18.21-5.751-23.844 2.223.269 2.683 1.596 5.367 3.91 8.05m-4.437-10.03c.018-2.499.026-5 .386-7.332 6.817-5.47 19.03-7.122 28.24 1.459 7.865 8.08 8.397 19.399 1.36 27.908-7.478 8.894-21.542 8.921-28.587-.364 8.06 9.225 24.685 7.792 29.567-5.304 3.179-8.868-.436-17.378-7.831-21.774-8.328-4.486-17.833-1.981-23.14 5.408" fill="#b50e19"/>
 </g>
</svg>
